<?xml version="1.0" standalone="no"?><!DOCTYPE svg PUBLIC "-//W3C//DTD SVG 1.1//EN" "http://www.w3.org/Graphics/SVG/1.1/DTD/svg11.dtd"><svg t="1617459162227" class="icon" viewBox="0 0 1024 1024" version="1.1" xmlns="http://www.w3.org/2000/svg" p-id="8084" width="48" height="48" xmlns:xlink="http://www.w3.org/1999/xlink"><defs><style type="text/css"></style></defs><path d="M928 115.2H99.2c-35.2 0-64 28.8-64 67.2v208c0 9.6 16 19.2 25.6 19.2s25.6-9.6 25.6-19.2V201.6v-6.4l416 332.8c6.4 6.4 19.2 6.4 25.6-3.2L937.6 201.6v627.2c0 16-12.8 28.8-25.6 28.8H54.4c-9.6 0-19.2 16-19.2 25.6 0 9.6 9.6 28.8 19.2 28.8H928c35.2 0 64-28.8 64-67.2V179.2c0-35.2-28.8-64-64-64zM137.6 166.4h755.2l-374.4 300.8L137.6 166.4z" fill="#4E5B7C" p-id="8085"></path><path d="M460.8 672c0-16-12.8-25.6-22.4-25.6h-384c-9.6 0-22.4 12.8-22.4 25.6 0 16 9.6 25.6 22.4 25.6h384c12.8 0 22.4-9.6 22.4-25.6z m-188.8-134.4H54.4c-9.6 0-22.4 12.8-22.4 25.6s9.6 25.6 22.4 25.6h217.6c9.6 0 25.6-9.6 25.6-25.6s-12.8-25.6-25.6-25.6z" fill="#2B98F0" p-id="8086"></path></svg>