<?xml version="1.0" standalone="no"?><!DOCTYPE svg PUBLIC "-//W3C//DTD SVG 1.1//EN" "http://www.w3.org/Graphics/SVG/1.1/DTD/svg11.dtd"><svg t="1617461877370" class="icon" viewBox="0 0 1024 1024" version="1.1" xmlns="http://www.w3.org/2000/svg" p-id="9819" xmlns:xlink="http://www.w3.org/1999/xlink" width="48" height="48"><defs><style type="text/css"></style></defs><path d="M647.3 532.4c-26.7-24.7-61.2-43-104.1-54.9-42.9-11.4-88.4-14.8-137.2-9.9-74 7.9-135.7 31.2-184.5 71.2-48.9 39.6-71.1 84.1-66.1 133 3 32.1 17.8 60.8 44.4 85.6 26.7 24.7 61.2 43 104.1 54.9 42.9 11.9 88.4 15.3 137.2 10.4 74-7.9 135.7-31.1 184.5-71.2 48.8-40.1 71.1-84.6 66.1-133.5-2.9-32.2-17.7-60.9-44.4-85.6z" fill="#FFFFFF" p-id="9820"></path><path d="M534.3 603.1c-15.8-30.2-41.9-49.9-79-59.8-35-9.4-70.1-5.9-105.1 9.4-34.6 15.3-59.7 38.6-75.5 69.7-15.8 31.7-16.8 62.8-3.5 93.9 13.3 30.7 38 51.9 73.5 63.3 37 12.4 74.5 10.4 112-5.9 37.5-15.8 64.2-41 79-75.2 15.4-33.6 14.9-65.2-1.4-95.4zM402 705.5c-7.4 11.4-17.8 19.3-31.6 24.2-13.3 4.4-25.7 3.9-37-1.5-11.3-5.5-18.7-13.8-21.7-25.2-3-11.9-1-23.2 6.4-34.6 6.9-11.4 17.3-18.8 30.1-23.2 11.8-4.3 24.8-4.1 36.5 0.5 11.8 4.9 19.3 13.4 22.7 25.2 3.5 11.8 1.5 23.2-5.4 34.6z m46.9-60.8c-2.2 4.7-6.4 8.3-11.4 9.9-4.7 1.5-9.7 1.5-14.3 0-9.8-4.9-11.8-12.4-6.4-22.7 5-8.8 15.5-12.9 25.2-9.9 4.2 1.7 7.5 5.1 8.9 9.4 1.5 4.3 0.5 8.8-2 13.3z" fill="#040000" p-id="9821"></path><path d="M828.5 561.1c-11.3-17.8-24.7-31.2-40-41-16-10.2-33.2-18.1-51.3-23.7-3.9-1.5-6.9-2.5-8.4-3-2-1.2-4-2.5-5.9-4-2.5-2-3.5-4-2.5-6.4 1.4-3.1 2.2-6.5 2.5-9.9 14.8-38.6 14.8-68.2 0-89.5-15.3-20.3-41-30.7-76.4-30.7-35.5 0-76.5 9.9-122.9 29.7l-3 1c-2.2 1-4.5 1.6-6.9 2-2.4 0.9-4.9 1.1-7.4 0.5-2.1-0.2-4-1.5-4.9-3.5-1-2-1-5.5 0.5-9.9 15.3-48.5 11.8-83.6-9.8-104.8-24.2-24.7-65.6-25.7-122.9-3.5-57.9 22.8-114.6 62.3-170.9 118.7-42.4 43-75.5 86-98.7 129.6s-34.5 84.6-34.5 123.1c0 36.1 10.9 69.2 32.6 100.4 21.7 30.7 50.3 55.9 85.9 75.7 35 19.8 75.5 35.1 119.9 46.5 44.9 11.3 91 17 137.3 16.8 46.9-0.5 92.3-5.5 135.2-15.8 43.4-10.4 80.9-24.2 113-41.5 30.4-16.1 58.8-35.8 84.4-58.8 23.7-21.8 42-45 54.3-68.8 12.3-24.2 18.3-47.5 18.3-70.2-0.2-21.1-6.2-41.5-17.5-59zM625.6 751.5c-48.9 40.1-110.6 63.3-184.5 71.2-48.9 4.9-94.3 1.5-137.2-10.4-42.9-11.9-77.5-30.2-104.1-54.9-26.6-24.7-41.5-53.4-44.4-85.6-4.9-49 17.3-93.5 66.1-133 48.9-40.1 110.6-63.3 184.5-71.2 48.9-4.9 94.3-1.5 137.2 9.9 42.9 11.9 77.5 30.2 104.1 54.9 26.6 24.7 41.5 53.4 44.4 85.6 5 48.9-17.2 93.4-66.1 133.5z" fill="#CD281E" p-id="9822"></path><path d="M808.7 306.9c13.8 15.8 23.2 34.1 27.1 54.4 3.9 20.3 3 40.1-3.5 58.8-2.5 7.9-7.4 13.4-14.8 17.3-7.4 3.5-14.8 4.5-22.2 2-7.5-2.2-13.7-7.6-16.8-14.8-3.5-7.4-4.4-14.8-2-22.3 6.4-21.3 2.5-39.6-11.8-55.9-14.8-15.8-32.6-21.8-53.3-17.8-7.8 1.7-15.9 0.3-22.7-3.9-6.9-4.5-11.4-10.4-12.3-18.8-1.5-7.9-0.5-15.3 4-22.3 4.4-7 10.4-11.4 18.3-12.9 40.5-8.5 82.5 5.3 110 36.2z" fill="#DA761E" p-id="9823"></path><path d="M899.1 224.8c28.8 31.3 48.2 70 56.3 111.8 8.4 42.5 6.4 82.6-6.9 121.2-2.8 8.6-8.8 15.9-16.8 20.3-8.4 4.4-16.8 4.9-26.2 2-8.7-2.8-15.9-9-19.7-17.3-4.4-8.4-4.9-16.8-2.5-26.2 9.4-27.2 10.9-56.4 4.9-86.5-5.7-29.6-19.5-57-40-79.1-20.7-23.2-45.4-39.1-74-48-27.9-8.9-57.7-10.4-86.4-4.5-9 2.1-18.5 0.3-26.2-4.9-7.9-4.9-12.8-12.4-14.8-21.8s-0.5-17.8 4.9-25.7c4.8-7.8 12.7-13.2 21.8-14.9 41-8.9 81.4-6.9 121.9 5.9 40 12.8 74.5 35.1 103.7 67.7z" fill="#DA761E" p-id="9824"></path></svg>